<svg width="397" height="336" viewBox="0 0 397 336" fill="none" xmlns="http://www.w3.org/2000/svg">
<g clip-path="url(#clip0_8214_277)">
<path d="M2.67991 273.9L2.20991 263.74C2.08991 261.1 3.85991 258.74 6.43991 258.12L26.9599 253.1C29.3999 252.49 31.1499 250.36 31.1899 247.85C31.2399 246.05 31.2799 243.88 31.3699 241.36C31.5199 236.45 31.5999 230.66 31.5999 224C31.5999 217.34 31.6799 210.37 31.8299 203.08C31.9799 195.79 32.0599 188.5 32.0599 181.2V98.44C32.0599 84.17 31.9799 71.97 31.8299 61.81C31.6599 51.67 31.4299 43.57 31.1299 37.55C30.9799 34.68 30.7899 32.37 30.5799 30.58C30.2899 28.26 28.5799 26.37 26.2699 25.83L4.75991 20.99C2.06991 20.41 0.239908 17.95 0.429908 15.24L1.14991 5.14C1.34991 2.24 3.77991 0 6.70991 0H110.59C142.25 0 166.06 5.79 182.06 17.36C198.04 28.94 206.03 46.3 206.03 69.44C206.03 84.98 201.63 98.85 192.86 111.05C184.08 123.25 171.94 132.85 156.42 139.82C140.9 146.79 123.11 150.28 103.05 150.28H78.9999C75.9099 150.28 73.4199 147.81 73.4199 144.75V132.99C73.4199 129.93 75.9099 127.46 78.9999 127.46H97.8699C116.05 127.46 130.31 122.55 140.65 112.71C150.99 102.89 156.16 89.41 156.16 72.28C156.16 56.1 151.7 43.82 142.76 35.43C133.82 27.03 121.05 22.83 104.44 22.83H84.8499C81.9199 22.83 79.4699 25.07 79.2899 27.98V28.06C79.1199 30.61 79.0599 34.49 79.0599 39.72V181.23C79.0599 193.28 79.1399 204.06 79.2899 213.57C79.4399 223.08 79.7599 231.1 80.2399 237.58C80.5499 241.84 80.8199 245.37 81.0699 248.21C81.2699 250.54 82.9199 252.49 85.2099 253.08L104.23 258.05C106.83 258.73 108.55 261.14 108.37 263.78L107.65 274.04C107.45 276.94 105.02 279.18 102.09 279.18H8.23991C5.25991 279.18 2.81991 276.86 2.65991 273.9H2.67991ZM272.96 335.21C258.22 335.21 244.74 333.1 233.24 327.36C206.03 313.78 192.25 299.99 182.06 287.79C171.87 275.59 139.59 221.46 128.94 201.16L102.07 148.92C100.44 145.74 102.22 141.86 105.74 141.02L135.07 134.03C137.32 133.5 139.67 134.39 140.98 136.29L191.47 209.71C199.61 221.76 247.19 282.71 253.93 290C260.67 297.29 267.48 302.84 274.39 306.65C280.04 309.77 286.12 312.15 292.63 313.78C295.15 314.42 296.91 316.69 296.83 319.27L296.59 328.64C296.51 331.38 294.45 333.64 291.72 334C289.49 334.29 287.24 334.53 284.97 334.71C281.04 335.03 277.06 335.18 272.98 335.18V335.21H272.96Z" fill="black"/>
<path d="M299.79 17.58C283.81 6.01998 259.98 0.22998 228.32 0.22998H197.72C195.31 0.22998 194.4 3.31998 196.42 4.62998C203.92 9.50998 210.6 15.44 216.16 22.19C216.62 22.74 217.29 23.07 218.01 23.07H222.2C238.81 23.07 251.58 27.27 260.52 35.67C269.46 44.07 273.92 56.36 273.92 72.52C273.92 89.64 268.76 103.13 258.41 112.95C248.07 122.77 233.8 127.7 215.63 127.7H213.15C212.51 127.7 211.88 127.96 211.44 128.43C204.55 135.49 196.36 141.45 187.22 146C184.93 147.14 185.72 150.53 188.27 150.53H220.78C240.84 150.53 258.62 147.04 274.15 140.07C289.66 133.1 301.8 123.5 310.59 111.3C319.36 99.1 323.76 85.22 323.76 69.68C323.76 46.53 315.77 29.17 299.79 17.6V17.58Z" fill="black"/>
<path d="M372.52 283.42C357.78 283.42 344.55 280.8 332.8 275.57C321.05 270.34 310.06 261.62 299.89 249.4C289.7 237.2 279.28 220.94 268.63 200.64L241.65 148.19C240.06 145.11 241.8 141.37 245.19 140.56L274.89 133.5C277.06 132.98 279.34 133.85 280.59 135.68L331.16 209.21C339.3 221.26 346.74 230.93 353.49 238.23C360.23 245.52 367.04 251.07 373.95 254.88C379.65 258.03 385.77 260.41 392.34 262.05C394.78 262.66 396.47 264.85 396.4 267.36L396.16 277.05C396.1 279.69 394.08 281.87 391.45 282.22C389.18 282.52 386.87 282.77 384.53 282.96C380.6 283.28 376.62 283.43 372.54 283.43H372.51L372.52 283.42Z" fill="black"/>
</g>
<defs>
<clipPath id="clip0_8214_277">
<rect width="396" height="335.21" fill="white" transform="translate(0.419922)"/>
</clipPath>
</defs>
</svg>
