<svg width="609" height="864" viewBox="0 0 609 864" fill="none" xmlns="http://www.w3.org/2000/svg">
<g clip-path="url(#clip0_8214_261)">
<path d="M522.87 67.42C545.68 89.71 563.17 123.59 572.24 154C605.33 264.97 610.77 387.6 607.32 503.01C604.73 589.58 600.99 692.88 547.3 764.88C456.42 886.78 236.38 888.77 117.39 809.7C16.44 742.64 12.35 592.08 4.63 482.77C4.28 477.85 3.22 472.34 2.91 467.42C-1.23 402.89 -1.31 336.97 5.11 272.25C14.94 173.22 36 63.83 142.05 28.08C240.31 -5.05002 353.12 -11.94 451.46 24.16C478.53 34.1 502.1 47.13 522.87 67.42ZM507.16 765.09C515.09 755.93 520.15 750.01 527.01 739.96C572.93 672.65 573.85 586.58 576.61 507.53C580.07 408.45 577.96 306.68 555.42 209.88C534.35 119.39 511.8 69.74 418.99 42.96C342.44 20.87 264.16 22.11 187.59 43.34C155.51 52.23 128.64 60.89 102.74 83.33C51.38 127.83 38.11 215.74 32.79 280.77C25.81 366.24 29.71 452.79 37.19 537.95C43.8 613.23 52.76 720.44 114.67 771.14C170.72 817.04 246.43 837.44 317.08 836.95C382.42 836.5 437.99 818.97 490.76 781.07" fill="black"/>
<path d="M120.56 525.9L120.09 515.74C119.97 513.1 121.74 510.74 124.32 510.12L144.84 505.1C147.28 504.49 149.03 502.36 149.07 499.85C149.12 498.05 149.16 495.88 149.25 493.36C149.4 488.45 149.48 482.66 149.48 476C149.48 469.34 149.56 462.37 149.71 455.08C149.86 447.79 149.94 440.5 149.94 433.2V350.44C149.94 336.17 149.86 323.97 149.71 313.81C149.54 303.67 149.31 295.57 149.01 289.55C148.86 286.68 148.67 284.37 148.46 282.58C148.17 280.26 146.46 278.37 144.15 277.83L122.64 272.99C119.95 272.38 118.12 269.93 118.32 267.21L119.04 257.11C119.24 254.21 121.67 251.97 124.6 251.97H228.48C260.14 251.97 283.95 257.76 299.95 269.33C315.93 280.91 323.92 298.27 323.92 321.41C323.92 336.95 319.52 350.82 310.75 363.02C301.97 375.22 289.83 384.82 274.31 391.79C258.79 398.76 241 402.25 220.94 402.25H196.89C193.8 402.25 191.31 399.78 191.31 396.72V384.96C191.31 381.9 193.8 379.43 196.89 379.43H215.76C233.94 379.43 248.2 374.52 258.54 364.68C268.88 354.86 274.05 341.38 274.05 324.25C274.05 308.07 269.59 295.79 260.65 287.4C251.71 279 238.94 274.8 222.33 274.8H202.74C199.81 274.8 197.36 277.04 197.18 279.95V280.03C197.01 282.58 196.95 286.46 196.95 291.69V433.2C196.95 445.25 197.03 456.03 197.18 465.54C197.33 475.05 197.65 483.07 198.13 489.55C198.44 493.81 198.71 497.34 198.96 500.18C199.16 502.51 200.81 504.46 203.1 505.05L222.12 510.02C224.72 510.7 226.44 513.11 226.26 515.75L225.54 526.01C225.34 528.91 222.91 531.15 219.98 531.15H126.13C123.15 531.15 120.71 528.83 120.55 525.87H120.57L120.56 525.9ZM390.85 587.21C376.11 587.21 362.63 585.1 351.13 579.36C323.92 565.78 310.14 551.99 299.95 539.79C289.76 527.59 257.48 473.46 246.83 453.16L219.96 400.92C218.33 397.74 220.11 393.86 223.63 393.02L252.96 386.03C255.21 385.5 257.56 386.39 258.87 388.29L309.36 461.71C317.5 473.76 365.08 534.71 371.82 542C378.56 549.29 385.37 554.84 392.28 558.65C397.93 561.77 404.01 564.15 410.52 565.78C413.04 566.42 414.8 568.69 414.72 571.27L414.48 580.64C414.4 583.38 412.34 585.64 409.61 586C407.38 586.29 405.13 586.53 402.86 586.71C398.93 587.03 394.95 587.18 390.87 587.18V587.21H390.85Z" fill="black"/>
<path d="M417.67 269.58C401.69 258.01 377.86 252.22 346.2 252.22H315.6C313.19 252.22 312.28 255.31 314.3 256.62C321.8 261.5 328.48 267.43 334.04 274.18C334.5 274.73 335.17 275.06 335.89 275.06H340.08C356.69 275.06 369.46 279.26 378.4 287.66C387.34 296.06 391.8 308.35 391.8 324.51C391.8 341.63 386.64 355.12 376.29 364.94C365.95 374.76 351.68 379.69 333.51 379.69H331.03C330.39 379.69 329.76 379.95 329.32 380.42C322.43 387.48 314.24 393.44 305.1 397.99C302.81 399.13 303.6 402.52 306.15 402.52H338.66C358.72 402.52 376.5 399.03 392.03 392.06C407.54 385.09 419.68 375.49 428.47 363.29C437.24 351.09 441.64 337.21 441.64 321.67C441.64 298.52 433.65 281.16 417.67 269.59V269.57V269.58Z" fill="black"/>
<path d="M490.4 535.42C475.66 535.42 462.43 532.8 450.68 527.57C438.93 522.34 427.94 513.62 417.77 501.4C407.58 489.2 397.16 472.94 386.51 452.64L359.53 400.19C357.94 397.11 359.68 393.37 363.07 392.56L392.77 385.5C394.94 384.98 397.22 385.85 398.47 387.68L449.04 461.21C457.18 473.26 464.62 482.93 471.37 490.23C478.11 497.52 484.92 503.07 491.83 506.88C497.53 510.03 503.65 512.41 510.22 514.05C512.66 514.66 514.35 516.85 514.28 519.36L514.04 529.05C513.98 531.69 511.96 533.87 509.33 534.22C507.06 534.52 504.75 534.77 502.41 534.96C498.48 535.28 494.5 535.43 490.42 535.43H490.39L490.4 535.42Z" fill="black"/>
</g>
<defs>
<clipPath id="clip0_8214_261">
<rect width="608.21" height="863.68" fill="white"/>
</clipPath>
</defs>
</svg>
