<svg width="2057" height="526" viewBox="0 0 2057 526" fill="none" xmlns="http://www.w3.org/2000/svg">
<g clip-path="url(#clip0_8214_299)">
<path d="M2.28992 230.5L1.88992 222.18C1.78992 220 3.23992 218.06 5.35992 217.55L22.4999 213.4C24.5099 212.91 25.9299 211.14 25.9799 209.08C26.0099 207.6 26.0599 205.84 26.1299 203.78C26.2599 199.75 26.3299 194.99 26.3299 189.52C26.3299 184.05 26.3899 178.33 26.5299 172.33C26.6599 166.34 26.7299 160.36 26.7299 154.36V86.39C26.7299 74.67 26.6599 64.65 26.5299 56.31C26.3999 47.98 26.1999 41.34 25.9399 36.39C25.8199 34.04 25.6599 32.13 25.4799 30.66C25.2399 28.75 23.8299 27.2 21.9499 26.78L3.97992 22.79C1.77992 22.3 0.269919 20.28 0.429919 18.03L1.01992 9.76004C1.18992 7.38004 3.16992 5.54004 5.54992 5.54004H91.9399C118.24 5.54004 138.03 10.29 151.32 19.8C164.6 29.31 171.24 43.57 171.24 62.57C171.24 75.33 167.59 86.73 160.3 96.75C153.01 106.78 142.92 114.66 130.03 120.38C117.14 126.11 102.36 128.97 85.6899 128.97H65.6299C63.1199 128.97 61.0799 126.93 61.0799 124.42V114.76C61.0799 112.25 63.1199 110.21 65.6299 110.21H81.3999C96.4999 110.21 108.35 106.18 116.95 98.1C125.54 90.03 129.84 78.96 129.84 64.9C129.84 51.62 126.13 41.53 118.71 34.63C111.29 27.73 100.67 24.28 86.8699 24.28H70.5099C68.1199 24.28 66.1199 26.13 65.9699 28.51C65.9699 28.53 65.9699 28.55 65.9699 28.57C65.8399 30.66 65.7699 33.84 65.7699 38.14V154.35C65.7699 164.25 65.8299 173.1 65.9699 180.91C66.0999 188.72 66.3599 195.3 66.7499 200.64C66.9999 204.12 67.2299 207.02 67.4299 209.34C67.5999 211.26 68.9499 212.87 70.8199 213.35L86.7199 217.46C88.8399 218.01 90.2699 220 90.1199 222.19L89.5199 230.6C89.3499 232.98 87.3699 234.82 84.9899 234.82H6.82992C4.39992 234.82 2.39992 232.91 2.28992 230.49V230.5ZM193.51 238.74C181.27 238.74 170.27 236.59 160.5 232.29C150.73 227.99 141.62 220.83 133.16 210.81C124.69 200.79 116.03 187.44 107.18 170.77L84.8799 127.91C83.5099 125.28 84.9899 122.07 87.8699 121.39L112.38 115.62C114.2 115.19 116.09 115.92 117.15 117.45L159.14 177.8C165.91 187.7 172.09 195.64 177.69 201.63C183.29 207.62 188.95 212.18 194.68 215.3C199.38 217.87 204.44 219.82 209.86 221.16C211.94 221.67 213.39 223.55 213.34 225.69L213.14 233.35C213.08 235.58 211.41 237.46 209.2 237.75C207.31 238 205.4 238.2 203.47 238.35C200.21 238.61 196.89 238.74 193.51 238.74Z" fill="black"/>
<path d="M251.72 231.69L251.21 221.06C251.14 219.52 252.14 218.14 253.62 217.72L269.05 213.4C270.04 213.12 270.84 212.4 271.22 211.45L350.28 14.78C350.55 14.11 351.04 13.54 351.66 13.17L373.17 0.460023C374.91 -0.569977 377.16 0.190023 377.91 2.07002L462.19 211.44C462.58 212.4 463.38 213.12 464.38 213.39L480.11 217.71C481.63 218.13 482.64 219.56 482.53 221.13L481.77 231.77C481.65 233.5 480.21 234.84 478.48 234.84H397.91C396.18 234.84 394.74 233.5 394.62 231.77L393.87 221.26C393.75 219.63 394.84 218.16 396.44 217.8L414.12 213.81C416.1 213.36 417.21 211.25 416.46 209.37L395.63 157.1L391.36 144.69C391.34 144.63 391.32 144.57 391.29 144.51L350.94 46.47C350.19 44.64 351.2 42.57 353.1 42.03C355.69 41.31 358.01 43.81 357.09 46.34L321.39 144.6L317.09 156.32L298.4 209.46C297.74 211.32 298.86 213.34 300.79 213.78L318.69 217.82C320.25 218.17 321.34 219.6 321.26 221.2L320.76 231.69C320.68 233.45 319.22 234.84 317.46 234.84H255.01C253.25 234.84 251.8 233.46 251.71 231.69H251.72ZM308.9 161.11V145.33C308.9 143.45 310.47 141.94 312.35 142.03C316.73 142.24 322.02 142.44 328.24 142.64C336.18 142.9 346.01 143.03 357.73 143.03C369.45 143.03 379.34 142.9 387.42 142.64C393.66 142.44 398.89 142.24 403.1 142.04C404.98 141.95 406.56 143.45 406.56 145.34V160.82C406.56 162.65 405.08 164.13 403.25 164.13C396.73 164.1 390.02 163.97 383.12 163.75C375.04 163.49 366.58 163.36 357.73 163.36C348.88 163.36 340.93 163.49 333.12 163.75C326.38 163.98 319.44 164.2 312.31 164.43C310.45 164.49 308.9 162.99 308.9 161.13V161.11Z" fill="black"/>
<path d="M538.53 14.07C538.87 9.26004 542.87 5.54004 547.69 5.54004H637.97C679.38 5.54004 711.66 15.37 734.85 35.03C758.02 54.7 769.62 82.24 769.62 117.65C769.62 140.57 764.21 160.81 753.41 178.39C742.6 195.97 727.63 209.77 708.49 219.8C689.35 229.83 667.28 234.84 642.28 234.84H547.71C542.89 234.84 538.89 231.12 538.55 226.31C538.23 221.78 541.26 217.7 545.69 216.7L556.1 214.35C559.98 213.47 562.88 210.2 563.22 206.23C563.51 202.87 563.76 198.41 563.96 192.85C564.35 181.78 564.55 168.96 564.55 154.37V86.4C564.55 70.52 564.35 57.17 563.96 46.36C563.78 41.33 563.55 37.28 563.29 34.2C562.95 30.22 560.06 26.93 556.16 26.05L545.68 23.68C541.25 22.68 538.22 18.59 538.54 14.07H538.53ZM612.42 26.88C608.02 27.51 604.74 31.26 604.63 35.71C604.61 36.42 604.59 37.18 604.57 37.97C604.44 42.4 604.31 48.46 604.18 56.13C604.05 63.81 603.98 73.9 603.98 86.4V154.37C603.98 161.93 604.04 169.21 604.18 176.25C604.31 183.28 604.57 189.67 604.96 195.39C605.12 197.76 605.27 199.96 605.41 201.97C605.71 206.35 609.08 209.89 613.43 210.45C618.15 211.05 622.62 211.57 626.84 211.99C633.22 212.64 639.4 212.97 645.39 212.97C671.17 212.97 690.76 205.94 704.18 191.88C717.59 177.82 724.3 156.86 724.3 128.99C724.3 111.8 722.21 96.7 718.05 83.68C713.88 70.66 707.83 59.85 699.89 51.26C691.94 42.67 682.44 36.22 671.37 31.92C660.3 27.62 647.74 25.47 633.67 25.47C629.24 25.47 624.62 25.67 619.8 26.06C617.39 26.26 614.93 26.53 612.42 26.89V26.88Z" fill="black"/>
<path d="M847.67 226.3C847.35 221.77 850.38 217.69 854.81 216.69L865.21 214.34C869.15 213.45 872.06 210.1 872.35 206.08C872.41 205.31 872.46 204.48 872.5 203.59C872.76 198.65 872.95 192.01 873.09 183.67C873.22 175.34 873.29 165.57 873.29 154.37V86.4C873.29 74.94 873.22 64.98 873.09 56.5201C872.96 48.0601 872.76 41.3501 872.5 36.4001C872.46 35.6701 872.42 34.9801 872.37 34.3301C872.09 30.2901 869.18 26.93 865.23 26.0401L854.8 23.69C850.37 22.69 847.34 18.6 847.66 14.08C848 9.27005 852 5.55005 856.82 5.55005H929.56C934.38 5.55005 938.38 9.27005 938.72 14.08C939.04 18.61 936.01 22.69 931.58 23.69L920.98 26.08C917.11 26.95 914.24 30.2101 913.86 34.1501C913.8 34.7301 913.75 35.35 913.69 36.01C913.3 40.7 913.04 47.2101 912.91 55.5401C912.78 63.8801 912.71 74.16 912.71 86.4V154.37C912.71 166.35 912.77 176.44 912.91 184.64C913.04 192.84 913.3 199.29 913.69 203.98C913.76 204.81 913.83 205.59 913.9 206.31C914.3 210.23 917.17 213.44 921.01 214.31L931.57 216.69C936 217.69 939.03 221.78 938.71 226.3C938.37 231.11 934.37 234.83 929.55 234.83H856.81C851.99 234.83 847.99 231.11 847.65 226.3H847.67Z" fill="black"/>
<path d="M995.55 231.69L995.04 221.06C994.97 219.52 995.97 218.14 997.45 217.72L1012.88 213.4C1013.87 213.12 1014.67 212.4 1015.05 211.45L1094.1 14.78C1094.37 14.11 1094.86 13.54 1095.48 13.17L1116.99 0.460023C1118.73 -0.569977 1120.98 0.190023 1121.73 2.07002L1206.01 211.44C1206.4 212.4 1207.2 213.12 1208.2 213.39L1223.93 217.71C1225.45 218.13 1226.46 219.56 1226.35 221.13L1225.59 231.77C1225.47 233.5 1224.03 234.84 1222.3 234.84H1141.73C1140 234.84 1138.56 233.5 1138.44 231.77L1137.69 221.26C1137.57 219.63 1138.66 218.16 1140.26 217.8L1157.94 213.81C1159.92 213.36 1161.03 211.25 1160.28 209.37L1139.45 157.1L1135.18 144.69C1135.16 144.63 1135.14 144.57 1135.11 144.51L1094.76 46.47C1094.01 44.64 1095.02 42.57 1096.92 42.03C1099.51 41.31 1101.83 43.81 1100.91 46.34L1065.21 144.6L1060.91 156.32L1042.22 209.46C1041.56 211.32 1042.68 213.34 1044.61 213.78L1062.51 217.82C1064.07 218.17 1065.16 219.6 1065.08 221.2L1064.58 231.69C1064.5 233.45 1063.04 234.84 1061.28 234.84H998.83C997.07 234.84 995.62 233.46 995.53 231.69H995.55ZM1052.73 161.11V145.33C1052.73 143.45 1054.3 141.94 1056.18 142.03C1060.56 142.24 1065.85 142.44 1072.07 142.64C1080.01 142.9 1089.84 143.03 1101.56 143.03C1113.28 143.03 1123.17 142.9 1131.25 142.64C1137.49 142.44 1142.72 142.24 1146.93 142.04C1148.81 141.95 1150.39 143.45 1150.39 145.34V160.82C1150.39 162.65 1148.91 164.13 1147.08 164.13C1140.56 164.1 1133.85 163.97 1126.95 163.75C1118.87 163.49 1110.41 163.36 1101.56 163.36C1092.71 163.36 1084.76 163.49 1076.95 163.75C1070.21 163.98 1063.27 164.2 1056.14 164.43C1054.28 164.49 1052.73 162.99 1052.73 161.13V161.11Z" fill="black"/>
<path d="M1467.38 173.51C1465.63 173.51 1464.21 172.09 1464.21 170.34V94.99C1464.21 80.41 1464.08 68.3 1463.82 58.66C1463.56 49.03 1463.29 41.67 1463.04 36.59C1462.88 33.53 1462.68 31.21 1462.43 29.61C1462.22 28.31 1461.23 27.28 1459.94 27.01L1438.03 22.5C1436.47 22.18 1435.39 20.76 1435.51 19.17L1436.27 8.48004C1436.39 6.82004 1437.77 5.54004 1439.43 5.54004H1510.48C1512.14 5.54004 1513.52 6.83004 1513.64 8.48004L1514.41 19.21C1514.52 20.78 1513.47 22.19 1511.94 22.53L1492.37 26.88C1490.99 27.19 1489.98 28.37 1489.89 29.79C1489.79 31.38 1489.63 33.64 1489.41 36.59C1489.02 41.67 1488.69 49.03 1488.43 58.66C1488.17 68.3 1488.04 80.41 1488.04 94.99V209.44C1488.04 217.24 1488.14 225.14 1488.34 233.14C1488.39 234.92 1486.96 236.4 1485.18 236.4H1470.45C1469.47 236.4 1468.55 235.95 1467.95 235.18L1324.86 52.07C1323.23 49.99 1324.72 46.95 1327.36 46.95H1330.19C1331.94 46.95 1333.36 48.37 1333.36 50.12V143.04C1333.36 158.15 1333.49 170.71 1333.75 180.74C1334.01 190.77 1334.34 198.32 1334.73 203.4C1334.97 206.55 1335.19 208.98 1335.38 210.68C1335.53 212.05 1336.55 213.15 1337.9 213.42L1359.93 217.89C1361.49 218.21 1362.58 219.63 1362.46 221.22L1361.7 231.9C1361.58 233.56 1360.2 234.84 1358.54 234.84H1286.32C1284.66 234.84 1283.28 233.55 1283.16 231.9L1282.39 221.16C1282.28 219.6 1283.33 218.19 1284.85 217.84L1304.49 213.41C1305.74 213.13 1306.71 212.12 1306.92 210.85C1307.2 209.12 1307.42 206.57 1307.59 203.21C1307.85 198 1308.11 190.39 1308.37 180.36C1308.63 170.34 1308.76 157.9 1308.76 143.06V80.95C1308.76 70.54 1308.63 61.55 1308.37 54C1308.11 46.45 1307.84 40.46 1307.59 36.03C1307.43 33.26 1307.21 31.1 1306.95 29.56C1306.73 28.29 1305.78 27.29 1304.52 27.01L1284.86 22.57C1283.33 22.22 1282.28 20.81 1282.4 19.25L1283.17 8.51004C1283.29 6.85004 1284.67 5.57004 1286.33 5.57004H1338.1C1339.06 5.57004 1339.97 6.01004 1340.58 6.76004L1469.88 168.39C1471.54 170.47 1470.06 173.54 1467.4 173.54L1467.38 173.51Z" fill="black"/>
<path d="M1715.15 238.35C1691.71 238.35 1670.62 233.99 1651.87 225.26C1633.12 216.54 1618.21 203.52 1607.14 186.2C1596.07 168.88 1590.54 147.6 1590.54 122.33C1590.54 105.41 1593.53 89.58 1599.52 74.87C1605.51 60.16 1614.23 47.4 1625.69 36.59C1637.15 25.79 1650.95 17.32 1667.1 11.2C1683.24 5.08002 1701.34 2.02002 1721.4 2.02002C1732.59 2.02002 1744.18 3.13002 1756.17 5.34002C1765.19 7.01002 1773.32 9.15002 1780.57 11.78C1784.74 13.29 1787.55 17.2 1787.77 21.63L1789.62 59.24C1789.92 65.23 1785.4 70.37 1779.42 70.85C1774.27 71.26 1769.51 68.06 1767.95 63.13L1759.84 37.49C1758.91 34.54 1756.79 32.12 1753.99 30.79C1749.94 28.87 1745.26 27.35 1739.95 26.23C1732.53 24.67 1725.17 23.89 1717.88 23.89C1699.65 23.89 1684.68 27.86 1672.96 35.8C1661.24 43.75 1652.51 54.62 1646.79 68.42C1641.06 82.23 1638.2 97.72 1638.2 114.9C1638.2 136.26 1641.91 154.49 1649.33 169.59C1656.75 184.7 1666.71 196.15 1679.21 203.97C1691.71 211.79 1705.64 215.69 1721.01 215.69C1728.56 215.69 1735.85 214.71 1742.89 212.76C1748.62 211.17 1753.91 209.02 1758.78 206.3C1760.87 205.13 1762.5 203.3 1763.46 201.11L1774.75 175.5C1776.71 171.06 1781.33 168.4 1786.15 168.95L1786.43 168.98C1793 169.72 1797.47 176.01 1796 182.46L1788.54 215.38C1787.8 218.65 1785.63 221.41 1782.63 222.89C1775.13 226.57 1766.12 229.9 1755.58 232.88C1742.69 236.52 1729.21 238.35 1715.15 238.35Z" fill="black"/>
<path d="M2044.71 229.4C2043.53 233.65 2039.49 236.44 2035.09 236.07C2030.32 235.68 2025.55 235.39 2020.78 235.23C2013.49 234.97 2006.72 234.84 2000.47 234.84H1874.63C1869.82 234.84 1865.83 231.12 1865.48 226.32C1865.16 221.79 1868.2 217.7 1872.64 216.71L1883.39 214.32C1887.33 213.44 1890.26 210.09 1890.55 206.06C1890.61 205.29 1890.66 204.46 1890.7 203.58C1890.96 198.64 1891.15 192 1891.29 183.66C1891.42 175.33 1891.49 165.56 1891.49 154.36V86.39C1891.49 74.93 1891.42 64.97 1891.29 56.51C1891.16 48.05 1890.96 41.34 1890.7 36.39C1890.66 35.66 1890.62 34.98 1890.58 34.33C1890.3 30.29 1887.38 26.92 1883.42 26.04L1872.64 23.64C1868.2 22.65 1865.16 18.57 1865.48 14.03C1865.82 9.23004 1869.82 5.51004 1874.63 5.51004H1990.31C1994.22 5.51004 1998.77 5.45004 2003.98 5.31004C2009.19 5.18004 2014.53 4.99004 2020 4.72004C2022.51 4.60004 2024.96 4.48004 2027.36 4.36004C2032.06 4.13004 2036.16 7.48004 2036.88 12.13L2042.43 48.32C2043.2 53.35 2039.73 58.05 2034.69 58.78L2032.16 59.15C2028 59.76 2023.96 57.46 2022.36 53.57L2013.36 31.7C2012.12 28.68 2009.37 26.53 2006.13 26.1C2005.29 25.99 2004.44 25.89 2003.6 25.8C2000.99 25.54 1998.26 25.41 1995.4 25.41H1955.95C1951 25.41 1946.51 25.48 1942.47 25.61C1941.56 25.64 1940.66 25.68 1939.79 25.73C1935.04 26 1931.3 29.88 1931.17 34.63C1931.17 34.93 1931.15 35.25 1931.14 35.57C1931.01 40.26 1930.88 45.79 1930.75 52.17C1930.62 58.55 1930.55 65.26 1930.55 72.29V170.34C1930.55 176.59 1930.61 182.52 1930.75 188.11C1930.88 193.71 1931.01 198.66 1931.14 202.95C1931.14 203.24 1931.16 203.52 1931.16 203.8C1931.3 208.54 1935.02 212.38 1939.75 212.68C1941.03 212.76 1942.32 212.84 1943.64 212.92C1947.94 213.18 1953.08 213.31 1959.07 213.31H1991.88C1997.87 213.31 2002.62 213.25 2006.14 213.11C2009.66 212.98 2012.39 212.79 2014.34 212.52C2014.57 212.49 2014.79 212.46 2015.01 212.43C2017.89 212.04 2020.4 210.31 2021.8 207.77L2037.11 180.04C2039.02 176.58 2042.94 174.73 2046.83 175.46L2049.24 175.91C2054.52 176.9 2057.83 182.2 2056.38 187.38L2044.71 229.34V229.4ZM1996.08 147.46L1994.11 135.47C1993.43 131.32 1990.03 128.15 1985.84 127.82C1985.77 127.82 1985.7 127.81 1985.62 127.8C1982.23 127.54 1978.2 127.41 1973.51 127.41H1946.56C1942.91 127.41 1939.14 127.54 1935.23 127.8C1934.58 127.84 1933.94 127.89 1933.29 127.93C1928 128.29 1923.51 124.08 1923.51 118.78V115.2C1923.51 110 1927.83 105.84 1933.03 106.04C1933.76 106.07 1934.49 106.1 1935.23 106.12C1939.14 106.25 1942.91 106.32 1946.56 106.32H1973.51C1978.2 106.32 1982.23 106.19 1985.62 105.93C1985.69 105.93 1985.76 105.92 1985.83 105.91C1990.07 105.59 1993.54 102.41 1994.21 98.21L1996.11 86.31C1996.82 81.86 2000.66 78.58 2005.17 78.58H2006.14C2011.2 78.58 2015.31 82.69 2015.31 87.75V145.97C2015.31 151.03 2011.2 155.14 2006.14 155.14H2005.13C2000.64 155.14 1996.81 151.89 1996.08 147.46Z" fill="black"/>
<path d="M399.53 518.43V518.3C399.38 516.04 400.87 514 403.07 513.45L411.61 511.32C413.65 510.81 415.1 509.01 415.17 506.92C415.19 506.34 415.21 505.72 415.24 505.05C415.33 502.68 415.37 499.87 415.37 496.61C415.37 493.35 415.41 489.71 415.5 485.67C415.59 481.63 415.63 477.41 415.63 473.01V418.17C415.63 409.73 415.59 402.84 415.5 397.47C415.41 392.11 415.32 388.02 415.24 385.21C415.22 384.63 415.2 384.09 415.18 383.6C415.08 381.46 413.57 379.66 411.48 379.21L402.97 377.37C400.7 376.88 399.13 374.8 399.27 372.48C399.42 370 401.48 368.07 403.96 368.07H452.02C466.79 368.07 478.34 371.28 486.69 377.69C495.04 384.11 499.21 393.29 499.21 405.24C499.21 413.85 496.92 421.55 492.35 428.31C487.78 435.08 481.41 440.35 473.23 444.13C465.06 447.91 455.7 449.8 445.15 449.8H432.45C429.85 449.8 427.75 447.7 427.75 445.1V444.22C427.75 441.62 429.85 439.52 432.45 439.52H445.15C457.1 439.52 466.24 436.8 472.57 431.35C478.9 425.9 482.06 418.17 482.06 408.15C482.06 398.13 479.29 390.84 473.75 385.74C468.21 380.64 460.17 378.09 449.62 378.09H431.95C431.77 378.44 431.64 378.79 431.55 379.14C431.46 379.49 431.42 380.55 431.42 382.3V473C431.42 482.14 431.46 489.13 431.55 493.96C431.64 498.8 431.77 502.36 431.95 504.64C432.02 505.51 432.08 506.33 432.15 507.1C432.32 509.1 433.75 510.75 435.69 511.24L444.5 513.44C446.7 513.99 448.19 516.03 448.05 518.29V518.42C447.89 520.9 445.83 522.83 443.35 522.83H404.19C401.71 522.83 399.65 520.9 399.5 518.42L399.53 518.43ZM518.72 525.21C512.04 525.21 506.1 523.8 500.92 520.99C495.73 518.18 490.46 513.34 485.1 506.49C479.74 499.63 473.37 490.14 465.98 478.01L449.79 450.89C448.15 448.14 449.68 444.6 452.8 443.9L458.6 442.6C460.5 442.17 462.47 442.97 463.55 444.6L488.92 483.03C494.37 491.29 499.16 497.71 503.29 502.28C507.42 506.85 511.42 510.19 515.29 512.3C518.11 513.84 521.11 515 524.31 515.79C526.44 516.32 527.89 518.29 527.82 520.49V520.55C527.74 522.95 525.86 524.94 523.46 525.08C523.42 525.08 523.38 525.08 523.34 525.08C521.67 525.17 520.13 525.21 518.73 525.21H518.72Z" fill="black"/>
<path d="M679.42 520.23C678.81 522.47 676.65 523.93 674.34 523.66C670.93 523.26 668.35 523.03 666.61 522.97C664.24 522.88 661.82 522.84 659.36 522.84H573.34C570.86 522.84 568.8 520.91 568.65 518.43C568.51 516.11 570.08 514.04 572.35 513.54L580.84 511.7C582.92 511.25 584.44 509.47 584.54 507.34C584.57 506.73 584.6 506.04 584.62 505.3C584.71 502.4 584.79 498.27 584.88 492.91C584.97 487.55 585.01 480.91 585.01 473V418.16C585.01 410.08 584.97 403.31 584.88 397.86C584.79 392.41 584.7 388.24 584.62 385.34C584.6 384.7 584.58 384.11 584.55 383.57C584.45 381.44 582.93 379.66 580.85 379.2L572.35 377.36C570.08 376.87 568.51 374.79 568.65 372.47C568.8 369.99 570.86 368.06 573.34 368.06H660.68C662.26 368.06 664.15 367.97 666.35 367.8C667.57 367.7 669.02 367.58 670.7 367.43C673.2 367.2 675.45 368.99 675.79 371.48L679.04 395.4C679.39 397.94 677.63 400.29 675.1 400.68L673.1 400.99C670.92 401.32 668.81 400.1 668.01 398.05L661.97 382.57C661.31 380.89 659.75 379.72 657.95 379.59C657.69 379.57 657.41 379.56 657.12 379.54C655.45 379.45 653.65 379.41 651.71 379.41H616.91C613.57 379.41 610.75 379.45 608.47 379.54C607.53 379.58 606.57 379.64 605.59 379.72C603.19 379.92 601.32 381.88 601.26 384.29C601.25 384.81 601.23 385.38 601.22 386.01C601.13 389.35 601.04 393.13 600.96 397.35C600.87 401.57 600.83 405.35 600.83 408.69V487.53C600.83 489.99 600.87 492.85 600.96 496.1C601.05 499.35 601.13 502.3 601.22 504.93C601.23 505.31 601.24 505.67 601.25 506.02C601.33 508.41 603.18 510.36 605.57 510.55C606.35 510.61 607.14 510.67 607.94 510.73C610.22 510.91 612.6 510.99 615.06 510.99H646.17C649.68 510.99 652.72 510.95 655.27 510.86C657.82 510.77 659.88 510.64 661.47 510.46C661.83 510.42 662.16 510.38 662.48 510.34C663.97 510.15 665.27 509.26 665.99 507.94L676.67 488.47C677.67 486.65 679.73 485.7 681.76 486.13L683.49 486.49C686.14 487.05 687.77 489.72 687.06 492.33L679.43 520.25L679.42 520.23ZM650.46 464.42L648.33 453.13C647.95 451.09 646.28 449.56 644.22 449.33C644.04 449.31 643.86 449.29 643.67 449.27C641.82 449.1 639.58 449.01 636.95 449.01H614.01C612.07 449.01 609.75 449.05 607.02 449.14C605.64 449.19 604.15 449.24 602.57 449.31C599.9 449.42 597.66 447.29 597.66 444.61V442.03C597.66 439.38 599.86 437.26 602.51 437.33C604.12 437.38 605.62 437.4 607.02 437.4H636.95C639.59 437.4 641.83 437.36 643.67 437.27C643.78 437.27 643.9 437.26 644.01 437.25C646.17 437.13 647.96 435.53 648.35 433.4L650.49 421.74C650.9 419.51 652.84 417.89 655.11 417.89H655.99C658.59 417.89 660.69 419.99 660.69 422.59V463.55C660.69 466.15 658.59 468.25 655.99 468.25H655.09C652.83 468.25 650.89 466.64 650.47 464.42H650.46Z" fill="black"/>
<path d="M851.9 402.48L805.38 520.7C804.68 522.47 802.98 523.63 801.07 523.63H797.43C795.49 523.63 793.76 522.42 793.09 520.6L742.04 382.19C741.52 380.77 740.33 379.69 738.86 379.31L731.71 377.45C729.57 376.89 728.12 374.89 728.26 372.68L728.28 372.39C728.43 369.95 730.45 368.05 732.9 368.05H768.24C770.68 368.05 772.71 369.95 772.86 372.39V372.61C773.01 374.85 771.52 376.87 769.34 377.4L764.96 378.45C762.28 379.09 760.75 381.93 761.69 384.52L803.7 500.95H802.12L841.77 393.96C843.32 389.77 849.33 390 850.56 394.3L852.05 399.52C852.33 400.5 852.28 401.54 851.91 402.49L851.9 402.48ZM886.97 520.56L837.22 382.22C836.7 380.78 835.51 379.69 834.03 379.31L826.9 377.46C824.76 376.9 823.31 374.9 823.45 372.69L823.47 372.4C823.62 369.96 825.64 368.06 828.09 368.06H865.54C867.98 368.06 870.01 369.96 870.16 372.4V372.48C870.31 374.78 868.73 376.84 866.47 377.3L860.07 378.6C857.32 379.16 855.7 382.02 856.63 384.67L897.19 499.83C897.38 500.38 896.98 500.95 896.4 500.95C895.82 500.95 895.42 500.38 895.61 499.83L936.37 385.04C937.32 382.35 935.65 379.45 932.84 378.94L923.5 377.23C921.2 376.81 919.57 374.73 919.72 372.39C919.87 369.95 921.89 368.05 924.34 368.05H961.79C964.23 368.05 966.26 369.95 966.41 372.39L966.43 372.68C966.57 374.89 965.12 376.89 962.98 377.45L955.79 379.32C954.35 379.7 953.17 380.74 952.64 382.13L899.26 520.65C898.57 522.44 896.86 523.61 894.94 523.61H891.35C889.4 523.61 887.66 522.39 887 520.55L886.97 520.56Z" fill="black"/>
<path d="M997.25 521.49L996.88 515.58C996.84 514.9 997.28 514.28 997.95 514.1L1009.02 511.16C1009.46 511.04 1009.82 510.72 1009.99 510.29L1063.87 371.4C1063.98 371.11 1064.18 370.87 1064.44 370.7L1074.68 364.24C1075.45 363.76 1076.47 364.1 1076.79 364.95L1131.8 510.27C1131.96 510.7 1132.33 511.03 1132.78 511.15L1143.85 514.09C1144.51 514.27 1144.96 514.88 1144.92 515.57L1144.55 521.48C1144.5 522.24 1143.87 522.83 1143.12 522.83H1100.73C1099.97 522.83 1099.34 522.24 1099.3 521.48L1098.93 515.62C1098.89 514.91 1099.37 514.28 1100.06 514.13L1113.03 511.32C1113.89 511.13 1114.38 510.22 1114.07 509.4L1098.59 469.31L1095.69 461.66L1065.96 386.29C1065.76 385.78 1065.87 385.2 1066.24 384.79C1067.3 383.63 1069.19 384.77 1068.65 386.25L1040.85 461.91L1037.95 469.82L1023.74 509.41C1023.45 510.23 1023.94 511.12 1024.79 511.3L1037.8 514.12C1038.49 514.27 1038.97 514.91 1038.93 515.61L1038.56 521.47C1038.51 522.23 1037.88 522.82 1037.13 522.82H998.7C997.94 522.82 997.31 522.23 997.27 521.47L997.25 521.49ZM1031.88 470.74V461.59C1031.88 460.77 1032.56 460.12 1033.38 460.15C1036.63 460.3 1041.06 460.45 1046.65 460.6C1053.15 460.78 1060.98 460.86 1070.12 460.86C1079.26 460.86 1086.82 460.77 1093.32 460.6C1098.87 460.45 1103.2 460.3 1106.32 460.15C1107.14 460.11 1107.82 460.76 1107.82 461.59V470.74C1107.82 471.55 1107.15 472.19 1106.34 472.18C1099.51 472.02 1093.05 471.9 1086.99 471.82C1080.49 471.73 1074.86 471.69 1070.11 471.69C1065.36 471.69 1060.09 471.73 1053.76 471.82C1047.81 471.91 1041.01 472.03 1033.35 472.18C1032.55 472.2 1031.87 471.55 1031.87 470.74H1031.88Z" fill="black"/>
<path d="M1188.33 518.43V518.3C1188.18 516.04 1189.67 514 1191.87 513.45L1200.41 511.32C1202.45 510.81 1203.9 509.01 1203.97 506.92C1203.99 506.34 1204.01 505.72 1204.04 505.05C1204.13 502.68 1204.17 499.87 1204.17 496.61C1204.17 493.35 1204.21 489.71 1204.3 485.67C1204.39 481.63 1204.43 477.41 1204.43 473.01V418.17C1204.43 409.73 1204.39 402.84 1204.3 397.47C1204.21 392.11 1204.12 388.02 1204.04 385.21C1204.02 384.63 1204 384.09 1203.98 383.6C1203.88 381.46 1202.37 379.66 1200.28 379.21L1191.77 377.37C1189.5 376.88 1187.93 374.8 1188.07 372.48C1188.22 370 1190.28 368.07 1192.76 368.07H1240.82C1255.59 368.07 1267.14 371.28 1275.49 377.69C1283.84 384.11 1288.01 393.29 1288.01 405.24C1288.01 413.85 1285.72 421.55 1281.15 428.31C1276.58 435.08 1270.21 440.35 1262.03 444.13C1253.86 447.91 1244.5 449.8 1233.95 449.8H1221.25C1218.65 449.8 1216.55 447.7 1216.55 445.1V444.22C1216.55 441.62 1218.65 439.52 1221.25 439.52H1233.95C1245.9 439.52 1255.04 436.8 1261.37 431.35C1267.7 425.9 1270.86 418.17 1270.86 408.15C1270.86 398.13 1268.09 390.84 1262.55 385.74C1257.01 380.64 1248.97 378.09 1238.42 378.09H1220.75C1220.57 378.44 1220.44 378.79 1220.35 379.14C1220.26 379.49 1220.22 380.55 1220.22 382.3V473C1220.22 482.14 1220.26 489.13 1220.35 493.96C1220.44 498.8 1220.57 502.36 1220.75 504.64C1220.82 505.51 1220.88 506.33 1220.95 507.1C1221.12 509.1 1222.55 510.75 1224.49 511.24L1233.3 513.44C1235.5 513.99 1236.99 516.03 1236.85 518.29V518.42C1236.69 520.9 1234.63 522.83 1232.15 522.83H1192.99C1190.51 522.83 1188.45 520.9 1188.3 518.42L1188.33 518.43ZM1307.52 525.21C1300.84 525.21 1294.9 523.8 1289.72 520.99C1284.53 518.18 1279.26 513.34 1273.9 506.49C1268.54 499.63 1262.17 490.14 1254.78 478.01L1238.59 450.89C1236.95 448.14 1238.48 444.6 1241.6 443.9L1247.4 442.6C1249.3 442.17 1251.27 442.97 1252.35 444.6L1277.72 483.03C1283.17 491.29 1287.96 497.71 1292.09 502.28C1296.22 506.85 1300.22 510.19 1304.09 512.3C1306.91 513.84 1309.91 515 1313.11 515.79C1315.24 516.32 1316.69 518.29 1316.62 520.49V520.55C1316.54 522.95 1314.66 524.94 1312.26 525.08C1312.22 525.08 1312.18 525.08 1312.14 525.08C1310.47 525.17 1308.93 525.21 1307.53 525.21H1307.52Z" fill="black"/>
<path d="M1357.45 372.47C1357.61 369.99 1359.66 368.06 1362.15 368.06H1417.05C1444.47 368.06 1465.87 374.7 1481.25 387.97C1496.63 401.24 1504.32 419.83 1504.32 443.74C1504.32 459.21 1500.76 472.92 1493.64 484.87C1486.52 496.83 1476.67 506.14 1464.11 512.82C1451.54 519.5 1436.99 522.84 1420.47 522.84H1362.14C1359.65 522.84 1357.6 520.91 1357.44 518.43C1357.3 516.11 1358.86 514.04 1361.13 513.54L1369.46 511.7C1371.49 511.25 1372.98 509.54 1373.14 507.47C1373.33 505.04 1373.51 501.64 1373.67 497.26C1373.93 490.05 1374.07 481.97 1374.07 473V418.16C1374.07 407.97 1373.94 399.35 1373.67 392.32C1373.53 388.51 1373.37 385.55 1373.2 383.44C1373.03 381.33 1371.54 379.66 1369.52 379.22L1361.13 377.37C1358.86 376.87 1357.3 374.79 1357.44 372.48L1357.45 372.47ZM1394.53 379.99C1392.32 380.36 1390.69 382.27 1390.64 384.5C1390.62 385.39 1390.59 386.33 1390.56 387.3C1390.47 389.76 1390.38 393.32 1390.3 397.98C1390.21 402.64 1390.17 409.36 1390.17 418.15V472.99C1390.17 478.62 1390.21 483.67 1390.3 488.15C1390.39 492.63 1390.52 496.59 1390.7 500.02C1390.79 501.77 1390.88 503.39 1390.97 504.88C1391.11 507.18 1392.89 509.03 1395.17 509.27C1400.01 509.78 1404.28 510.22 1407.97 510.56C1412.63 511 1417.33 511.22 1422.08 511.22C1442.47 511.22 1457.98 505.95 1468.62 495.4C1479.25 484.85 1484.57 470.18 1484.57 451.37C1484.57 440.3 1483.16 430.28 1480.35 421.31C1477.54 412.35 1473.23 404.7 1467.43 398.37C1461.63 392.04 1454.29 387.16 1445.41 383.74C1436.53 380.31 1426.03 378.6 1413.9 378.6C1410.38 378.6 1406.69 378.73 1402.83 379C1400.15 379.18 1397.39 379.51 1394.55 379.99H1394.53Z" fill="black"/>
<path d="M1605.41 525.21C1597.67 525.21 1589.89 524.29 1582.08 522.44C1575.7 520.93 1570.4 519.16 1566.18 517.13C1564.53 516.34 1563.44 514.72 1563.35 512.9L1562.14 488.68C1562.01 486.08 1563.91 483.83 1566.49 483.52C1568.87 483.23 1571.12 484.69 1571.82 486.99L1576.64 502.81C1577 503.99 1577.78 505.01 1578.85 505.62C1582.95 507.98 1587.32 509.89 1591.97 511.36C1597.24 513.03 1603.13 513.86 1609.64 513.86C1618.6 513.86 1625.99 511.58 1631.79 507C1637.59 502.43 1640.49 496.1 1640.49 488.02C1640.49 481.69 1638.6 476.42 1634.82 472.2C1631.04 467.98 1626.21 464.25 1620.32 460.99C1614.43 457.74 1608.19 454.57 1601.6 451.5C1595.01 448.43 1588.77 444.95 1582.88 441.08C1576.99 437.22 1572.16 432.56 1568.38 427.11C1564.6 421.66 1562.71 414.89 1562.71 406.81C1562.71 398.73 1564.95 391.56 1569.43 385.32C1573.91 379.08 1580.06 374.2 1587.89 370.69C1595.71 367.18 1604.63 365.42 1614.65 365.42C1619.57 365.42 1624.05 365.64 1628.1 366.08C1632.14 366.52 1635.88 367.18 1639.31 368.06C1641.52 368.63 1643.59 369.27 1645.54 369.98C1647.49 370.69 1648.73 372.39 1648.83 374.39L1650 396.67C1650.14 399.27 1648.24 401.53 1645.65 401.85H1645.54C1643.21 402.15 1641 400.75 1640.25 398.53L1635.24 383.68C1634.86 382.56 1634.11 381.61 1633.09 381.01C1627.78 377.84 1620.66 376.25 1611.74 376.25C1602.07 376.25 1594.34 378.62 1588.54 383.37C1582.74 388.12 1579.84 394.18 1579.84 401.56C1579.84 408.06 1581.73 413.6 1585.51 418.17C1589.29 422.74 1594.12 426.7 1600.01 430.04C1605.9 433.38 1612.18 436.59 1618.86 439.66C1625.54 442.74 1631.82 446.16 1637.71 449.94C1643.6 453.72 1648.43 458.25 1652.21 463.52C1655.99 468.79 1657.88 475.3 1657.88 483.03C1657.88 490.76 1655.59 498.32 1651.02 504.65C1646.45 510.98 1640.21 515.99 1632.3 519.68C1624.39 523.37 1615.42 525.22 1605.41 525.22V525.21Z" fill="black"/>
</g>
<defs>
<clipPath id="clip0_8214_299">
<rect width="2056.3" height="525.21" fill="white" transform="translate(0.419922)"/>
</clipPath>
</defs>
</svg>
