<svg width="2057" height="526" viewBox="0 0 2057 526" fill="none" xmlns="http://www.w3.org/2000/svg">
<g clip-path="url(#clip0_8214_319)">
<path d="M1.87 230.5L1.47 222.18C1.37 220 2.82 218.06 4.94 217.55L22.08 213.4C24.09 212.91 25.51 211.14 25.56 209.08C25.59 207.6 25.64 205.84 25.71 203.78C25.84 199.75 25.91 194.99 25.91 189.52C25.91 184.05 25.97 178.33 26.11 172.33C26.24 166.34 26.31 160.36 26.31 154.36V86.39C26.31 74.67 26.24 64.65 26.11 56.31C25.98 47.98 25.78 41.34 25.52 36.39C25.4 34.04 25.24 32.13 25.06 30.66C24.82 28.75 23.41 27.2 21.53 26.78L3.56 22.79C1.36 22.3 -0.150003 20.28 0.00999727 18.03L0.599997 9.75998C0.769997 7.37998 2.75 5.53998 5.13 5.53998H91.52C117.82 5.53998 137.61 10.29 150.9 19.8C164.18 29.31 170.82 43.57 170.82 62.57C170.82 75.33 167.17 86.73 159.88 96.75C152.59 106.78 142.5 114.66 129.61 120.38C116.72 126.11 101.94 128.97 85.27 128.97H65.21C62.7 128.97 60.66 126.93 60.66 124.42V114.76C60.66 112.25 62.7 110.21 65.21 110.21H80.98C96.08 110.21 107.93 106.18 116.53 98.1C125.12 90.03 129.42 78.96 129.42 64.9C129.42 51.62 125.71 41.53 118.29 34.63C110.87 27.73 100.25 24.28 86.45 24.28H70.09C67.7 24.28 65.7 26.13 65.55 28.51C65.55 28.53 65.55 28.55 65.55 28.57C65.42 30.66 65.35 33.84 65.35 38.14V154.35C65.35 164.25 65.41 173.1 65.55 180.91C65.68 188.72 65.94 195.3 66.33 200.64C66.58 204.12 66.81 207.02 67.01 209.34C67.18 211.26 68.53 212.87 70.4 213.35L86.3 217.46C88.42 218.01 89.85 220 89.7 222.19L89.1 230.6C88.93 232.98 86.95 234.82 84.57 234.82H6.41C3.98 234.82 1.98 232.91 1.87 230.49V230.5ZM193.09 238.74C180.85 238.74 169.85 236.59 160.08 232.29C150.31 227.99 141.2 220.83 132.74 210.81C124.27 200.79 115.61 187.44 106.76 170.77L84.46 127.91C83.09 125.28 84.57 122.07 87.45 121.39L111.96 115.62C113.78 115.19 115.67 115.92 116.73 117.45L158.72 177.8C165.49 187.7 171.67 195.64 177.27 201.63C182.87 207.62 188.53 212.18 194.26 215.3C198.96 217.87 204.02 219.82 209.44 221.16C211.52 221.67 212.97 223.55 212.92 225.69L212.72 233.35C212.66 235.58 210.99 237.46 208.78 237.75C206.89 238 204.98 238.2 203.05 238.35C199.79 238.61 196.47 238.74 193.09 238.74Z" fill="white"/>
<path d="M251.3 231.69L250.79 221.06C250.72 219.52 251.72 218.14 253.2 217.72L268.63 213.4C269.62 213.12 270.42 212.4 270.8 211.45L349.86 14.78C350.13 14.11 350.62 13.54 351.24 13.17L372.75 0.459993C374.49 -0.570007 376.74 0.189993 377.49 2.06999L461.77 211.44C462.16 212.4 462.96 213.12 463.96 213.39L479.69 217.71C481.21 218.13 482.22 219.56 482.11 221.13L481.35 231.77C481.23 233.5 479.79 234.84 478.06 234.84H397.49C395.76 234.84 394.32 233.5 394.2 231.77L393.45 221.26C393.33 219.63 394.42 218.16 396.02 217.8L413.7 213.81C415.68 213.36 416.79 211.25 416.04 209.37L395.21 157.1L390.94 144.69C390.92 144.63 390.9 144.57 390.87 144.51L350.52 46.47C349.77 44.64 350.78 42.57 352.68 42.03C355.27 41.31 357.59 43.81 356.67 46.34L320.97 144.6L316.67 156.32L297.98 209.46C297.32 211.32 298.44 213.34 300.37 213.78L318.27 217.82C319.83 218.17 320.92 219.6 320.84 221.2L320.34 231.69C320.26 233.45 318.8 234.84 317.04 234.84H254.59C252.83 234.84 251.38 233.46 251.29 231.69H251.3ZM308.48 161.11V145.33C308.48 143.45 310.05 141.94 311.93 142.03C316.31 142.24 321.6 142.44 327.82 142.64C335.76 142.9 345.59 143.03 357.31 143.03C369.03 143.03 378.92 142.9 387 142.64C393.24 142.44 398.47 142.24 402.68 142.04C404.56 141.95 406.14 143.45 406.14 145.34V160.82C406.14 162.65 404.66 164.13 402.83 164.13C396.31 164.1 389.6 163.97 382.7 163.75C374.62 163.49 366.16 163.36 357.31 163.36C348.46 163.36 340.51 163.49 332.7 163.75C325.96 163.98 319.02 164.2 311.89 164.43C310.03 164.49 308.48 162.99 308.48 161.13V161.11Z" fill="white"/>
<path d="M538.11 14.07C538.45 9.25998 542.45 5.53998 547.27 5.53998H637.55C678.96 5.53998 711.24 15.37 734.43 35.03C757.6 54.7 769.2 82.24 769.2 117.65C769.2 140.57 763.79 160.81 752.99 178.39C742.18 195.97 727.21 209.77 708.07 219.8C688.93 229.83 666.86 234.84 641.86 234.84H547.29C542.47 234.84 538.47 231.12 538.13 226.31C537.81 221.78 540.84 217.7 545.27 216.7L555.68 214.35C559.56 213.47 562.46 210.2 562.8 206.23C563.09 202.87 563.34 198.41 563.54 192.85C563.93 181.78 564.13 168.96 564.13 154.37V86.4C564.13 70.52 563.93 57.17 563.54 46.36C563.36 41.33 563.13 37.28 562.87 34.2C562.53 30.22 559.64 26.93 555.74 26.05L545.26 23.68C540.83 22.68 537.8 18.59 538.12 14.07H538.11ZM612 26.88C607.6 27.51 604.32 31.26 604.21 35.71C604.19 36.42 604.17 37.18 604.15 37.97C604.02 42.4 603.89 48.46 603.76 56.13C603.63 63.81 603.56 73.9 603.56 86.4V154.37C603.56 161.93 603.62 169.21 603.76 176.25C603.89 183.28 604.15 189.67 604.54 195.39C604.7 197.76 604.85 199.96 604.99 201.97C605.29 206.35 608.66 209.89 613.01 210.45C617.73 211.05 622.2 211.57 626.42 211.99C632.8 212.64 638.98 212.97 644.97 212.97C670.75 212.97 690.34 205.94 703.76 191.88C717.17 177.82 723.88 156.86 723.88 128.99C723.88 111.8 721.79 96.7 717.63 83.68C713.46 70.66 707.41 59.85 699.47 51.26C691.52 42.67 682.02 36.22 670.95 31.92C659.88 27.62 647.32 25.47 633.25 25.47C628.82 25.47 624.2 25.67 619.38 26.06C616.97 26.26 614.51 26.53 612 26.89V26.88Z" fill="white"/>
<path d="M847.25 226.3C846.93 221.77 849.96 217.69 854.39 216.69L864.79 214.34C868.73 213.45 871.64 210.1 871.93 206.08C871.99 205.31 872.04 204.48 872.08 203.59C872.34 198.65 872.53 192.01 872.67 183.67C872.8 175.34 872.87 165.57 872.87 154.37V86.4C872.87 74.94 872.8 64.98 872.67 56.52C872.54 48.06 872.34 41.35 872.08 36.4C872.04 35.67 872 34.98 871.95 34.33C871.67 30.29 868.76 26.93 864.81 26.04L854.38 23.69C849.95 22.69 846.92 18.6 847.24 14.08C847.58 9.26999 851.58 5.54999 856.4 5.54999H929.14C933.96 5.54999 937.96 9.26999 938.3 14.08C938.62 18.61 935.59 22.69 931.16 23.69L920.56 26.08C916.69 26.95 913.82 30.21 913.44 34.15C913.38 34.73 913.33 35.35 913.27 36.01C912.88 40.7 912.62 47.21 912.49 55.54C912.36 63.88 912.29 74.16 912.29 86.4V154.37C912.29 166.35 912.35 176.44 912.49 184.64C912.62 192.84 912.88 199.29 913.27 203.98C913.34 204.81 913.41 205.59 913.48 206.31C913.88 210.23 916.75 213.44 920.59 214.31L931.15 216.69C935.58 217.69 938.61 221.78 938.29 226.3C937.95 231.11 933.95 234.83 929.13 234.83H856.39C851.57 234.83 847.57 231.11 847.23 226.3H847.25Z" fill="white"/>
<path d="M995.13 231.69L994.62 221.06C994.55 219.52 995.55 218.14 997.03 217.72L1012.46 213.4C1013.45 213.12 1014.25 212.4 1014.63 211.45L1093.68 14.78C1093.95 14.11 1094.44 13.54 1095.06 13.17L1116.57 0.459993C1118.31 -0.570007 1120.56 0.189993 1121.31 2.06999L1205.59 211.44C1205.98 212.4 1206.78 213.12 1207.78 213.39L1223.51 217.71C1225.03 218.13 1226.04 219.56 1225.93 221.13L1225.17 231.77C1225.05 233.5 1223.61 234.84 1221.88 234.84H1141.31C1139.58 234.84 1138.14 233.5 1138.02 231.77L1137.27 221.26C1137.15 219.63 1138.24 218.16 1139.84 217.8L1157.52 213.81C1159.5 213.36 1160.61 211.25 1159.86 209.37L1139.03 157.1L1134.76 144.69C1134.74 144.63 1134.72 144.57 1134.69 144.51L1094.34 46.47C1093.59 44.64 1094.6 42.57 1096.5 42.03C1099.09 41.31 1101.41 43.81 1100.49 46.34L1064.79 144.6L1060.49 156.32L1041.8 209.46C1041.14 211.32 1042.26 213.34 1044.19 213.78L1062.09 217.82C1063.65 218.17 1064.74 219.6 1064.66 221.2L1064.16 231.69C1064.08 233.45 1062.62 234.84 1060.86 234.84H998.41C996.65 234.84 995.2 233.46 995.11 231.69H995.13ZM1052.31 161.11V145.33C1052.31 143.45 1053.88 141.94 1055.76 142.03C1060.14 142.24 1065.43 142.44 1071.65 142.64C1079.59 142.9 1089.42 143.03 1101.14 143.03C1112.86 143.03 1122.75 142.9 1130.83 142.64C1137.07 142.44 1142.3 142.24 1146.51 142.04C1148.39 141.95 1149.97 143.45 1149.97 145.34V160.82C1149.97 162.65 1148.49 164.13 1146.66 164.13C1140.14 164.1 1133.43 163.97 1126.53 163.75C1118.45 163.49 1109.99 163.36 1101.14 163.36C1092.29 163.36 1084.34 163.49 1076.53 163.75C1069.79 163.98 1062.85 164.2 1055.72 164.43C1053.86 164.49 1052.31 162.99 1052.31 161.13V161.11Z" fill="white"/>
<path d="M1466.96 173.51C1465.21 173.51 1463.79 172.09 1463.79 170.34V94.99C1463.79 80.41 1463.66 68.3 1463.4 58.66C1463.14 49.03 1462.87 41.67 1462.62 36.59C1462.46 33.53 1462.26 31.21 1462.01 29.61C1461.8 28.31 1460.81 27.28 1459.52 27.01L1437.61 22.5C1436.05 22.18 1434.97 20.76 1435.09 19.17L1435.85 8.47998C1435.97 6.81998 1437.35 5.53998 1439.01 5.53998H1510.06C1511.72 5.53998 1513.1 6.82998 1513.22 8.47998L1513.99 19.21C1514.1 20.78 1513.05 22.19 1511.52 22.53L1491.95 26.88C1490.57 27.19 1489.56 28.37 1489.47 29.79C1489.37 31.38 1489.21 33.64 1488.99 36.59C1488.6 41.67 1488.27 49.03 1488.01 58.66C1487.75 68.3 1487.62 80.41 1487.62 94.99V209.44C1487.62 217.24 1487.72 225.14 1487.92 233.14C1487.97 234.92 1486.54 236.4 1484.76 236.4H1470.03C1469.05 236.4 1468.13 235.95 1467.53 235.18L1324.44 52.07C1322.81 49.99 1324.3 46.95 1326.94 46.95H1329.77C1331.52 46.95 1332.94 48.37 1332.94 50.12V143.04C1332.94 158.15 1333.07 170.71 1333.33 180.74C1333.59 190.77 1333.92 198.32 1334.31 203.4C1334.55 206.55 1334.77 208.98 1334.96 210.68C1335.11 212.05 1336.13 213.15 1337.48 213.42L1359.51 217.89C1361.07 218.21 1362.16 219.63 1362.04 221.22L1361.28 231.9C1361.16 233.56 1359.78 234.84 1358.12 234.84H1285.9C1284.24 234.84 1282.86 233.55 1282.74 231.9L1281.97 221.16C1281.86 219.6 1282.91 218.19 1284.43 217.84L1304.07 213.41C1305.32 213.13 1306.29 212.12 1306.5 210.85C1306.78 209.12 1307 206.57 1307.17 203.21C1307.43 198 1307.69 190.39 1307.95 180.36C1308.21 170.34 1308.34 157.9 1308.34 143.06V80.95C1308.34 70.54 1308.21 61.55 1307.95 54C1307.69 46.45 1307.42 40.46 1307.17 36.03C1307.01 33.26 1306.79 31.1 1306.53 29.56C1306.31 28.29 1305.36 27.29 1304.1 27.01L1284.44 22.57C1282.91 22.22 1281.86 20.81 1281.98 19.25L1282.75 8.50998C1282.87 6.84998 1284.25 5.56998 1285.91 5.56998H1337.68C1338.64 5.56998 1339.55 6.00998 1340.16 6.75998L1469.46 168.39C1471.12 170.47 1469.64 173.54 1466.98 173.54L1466.96 173.51Z" fill="white"/>
<path d="M1714.73 238.35C1691.29 238.35 1670.2 233.99 1651.45 225.26C1632.7 216.54 1617.79 203.52 1606.72 186.2C1595.65 168.88 1590.12 147.6 1590.12 122.33C1590.12 105.41 1593.11 89.58 1599.1 74.87C1605.09 60.16 1613.81 47.4 1625.27 36.59C1636.73 25.79 1650.53 17.32 1666.68 11.2C1682.82 5.07999 1700.92 2.01999 1720.98 2.01999C1732.17 2.01999 1743.76 3.12999 1755.75 5.33999C1764.77 7.00999 1772.9 9.14999 1780.15 11.78C1784.32 13.29 1787.13 17.2 1787.35 21.63L1789.2 59.24C1789.5 65.23 1784.98 70.37 1779 70.85C1773.85 71.26 1769.09 68.06 1767.53 63.13L1759.42 37.49C1758.49 34.54 1756.37 32.12 1753.57 30.79C1749.52 28.87 1744.84 27.35 1739.53 26.23C1732.11 24.67 1724.75 23.89 1717.46 23.89C1699.23 23.89 1684.26 27.86 1672.54 35.8C1660.82 43.75 1652.09 54.62 1646.37 68.42C1640.64 82.23 1637.78 97.72 1637.78 114.9C1637.78 136.26 1641.49 154.49 1648.91 169.59C1656.33 184.7 1666.29 196.15 1678.79 203.97C1691.29 211.79 1705.22 215.69 1720.59 215.69C1728.14 215.69 1735.43 214.71 1742.47 212.76C1748.2 211.17 1753.49 209.02 1758.36 206.3C1760.45 205.13 1762.08 203.3 1763.04 201.11L1774.33 175.5C1776.29 171.06 1780.91 168.4 1785.73 168.95L1786.01 168.98C1792.58 169.72 1797.05 176.01 1795.58 182.46L1788.12 215.38C1787.38 218.65 1785.21 221.41 1782.21 222.89C1774.71 226.57 1765.7 229.9 1755.16 232.88C1742.27 236.52 1728.79 238.35 1714.73 238.35Z" fill="white"/>
<path d="M2044.29 229.4C2043.11 233.65 2039.07 236.44 2034.67 236.07C2029.9 235.68 2025.13 235.39 2020.36 235.23C2013.07 234.97 2006.3 234.84 2000.05 234.84H1874.21C1869.4 234.84 1865.41 231.12 1865.06 226.32C1864.74 221.79 1867.78 217.7 1872.22 216.71L1882.97 214.32C1886.91 213.44 1889.84 210.09 1890.13 206.06C1890.19 205.29 1890.24 204.46 1890.28 203.58C1890.54 198.64 1890.73 192 1890.87 183.66C1891 175.33 1891.07 165.56 1891.07 154.36V86.39C1891.07 74.93 1891 64.97 1890.87 56.51C1890.74 48.05 1890.54 41.34 1890.28 36.39C1890.24 35.66 1890.2 34.98 1890.16 34.33C1889.88 30.29 1886.96 26.92 1883 26.04L1872.22 23.64C1867.78 22.65 1864.74 18.57 1865.06 14.03C1865.4 9.23001 1869.4 5.51001 1874.21 5.51001H1989.89C1993.8 5.51001 1998.35 5.45001 2003.56 5.31001C2008.77 5.18001 2014.11 4.99001 2019.58 4.72001C2022.09 4.60001 2024.54 4.48001 2026.94 4.36001C2031.64 4.13001 2035.74 7.48001 2036.46 12.13L2042.01 48.32C2042.78 53.35 2039.31 58.05 2034.27 58.78L2031.74 59.15C2027.58 59.76 2023.54 57.46 2021.94 53.57L2012.94 31.7C2011.7 28.68 2008.95 26.53 2005.71 26.1C2004.87 25.99 2004.02 25.89 2003.18 25.8C2000.57 25.54 1997.84 25.41 1994.98 25.41H1955.53C1950.58 25.41 1946.09 25.48 1942.05 25.61C1941.14 25.64 1940.24 25.68 1939.37 25.73C1934.62 26 1930.88 29.88 1930.75 34.63C1930.75 34.93 1930.73 35.25 1930.72 35.57C1930.59 40.26 1930.46 45.79 1930.33 52.17C1930.2 58.55 1930.13 65.26 1930.13 72.29V170.34C1930.13 176.59 1930.19 182.52 1930.33 188.11C1930.46 193.71 1930.59 198.66 1930.72 202.95C1930.72 203.24 1930.74 203.52 1930.74 203.8C1930.88 208.54 1934.6 212.38 1939.33 212.68C1940.61 212.76 1941.9 212.84 1943.22 212.92C1947.52 213.18 1952.66 213.31 1958.65 213.31H1991.46C1997.45 213.31 2002.2 213.25 2005.72 213.11C2009.24 212.98 2011.97 212.79 2013.92 212.52C2014.15 212.49 2014.37 212.46 2014.59 212.43C2017.47 212.04 2019.98 210.31 2021.38 207.77L2036.69 180.04C2038.6 176.58 2042.52 174.73 2046.41 175.46L2048.82 175.91C2054.1 176.9 2057.41 182.2 2055.96 187.38L2044.29 229.34V229.4ZM1995.66 147.46L1993.69 135.47C1993.01 131.32 1989.61 128.15 1985.42 127.82C1985.35 127.82 1985.28 127.81 1985.2 127.8C1981.81 127.54 1977.78 127.41 1973.09 127.41H1946.14C1942.49 127.41 1938.72 127.54 1934.81 127.8C1934.16 127.84 1933.52 127.89 1932.87 127.93C1927.58 128.29 1923.09 124.08 1923.09 118.78V115.2C1923.09 110 1927.41 105.84 1932.61 106.04C1933.34 106.07 1934.07 106.1 1934.81 106.12C1938.72 106.25 1942.49 106.32 1946.14 106.32H1973.09C1977.78 106.32 1981.81 106.19 1985.2 105.93C1985.27 105.93 1985.34 105.92 1985.41 105.91C1989.65 105.59 1993.12 102.41 1993.79 98.21L1995.69 86.31C1996.4 81.86 2000.24 78.58 2004.75 78.58H2005.72C2010.78 78.58 2014.89 82.69 2014.89 87.75V145.97C2014.89 151.03 2010.78 155.14 2005.72 155.14H2004.71C2000.22 155.14 1996.39 151.89 1995.66 147.46Z" fill="white"/>
<path d="M399.11 518.43V518.3C398.96 516.04 400.45 514 402.65 513.45L411.19 511.32C413.23 510.81 414.68 509.01 414.75 506.92C414.77 506.34 414.79 505.72 414.82 505.05C414.91 502.68 414.95 499.87 414.95 496.61C414.95 493.35 414.99 489.71 415.08 485.67C415.17 481.63 415.21 477.41 415.21 473.01V418.17C415.21 409.73 415.17 402.84 415.08 397.47C414.99 392.11 414.9 388.02 414.82 385.21C414.8 384.63 414.78 384.09 414.76 383.6C414.66 381.46 413.15 379.66 411.06 379.21L402.55 377.37C400.28 376.88 398.71 374.8 398.85 372.48C399 370 401.06 368.07 403.54 368.07H451.6C466.37 368.07 477.92 371.28 486.27 377.69C494.62 384.11 498.79 393.29 498.79 405.24C498.79 413.85 496.5 421.55 491.93 428.31C487.36 435.08 480.99 440.35 472.81 444.13C464.64 447.91 455.28 449.8 444.73 449.8H432.03C429.43 449.8 427.33 447.7 427.33 445.1V444.22C427.33 441.62 429.43 439.52 432.03 439.52H444.73C456.68 439.52 465.82 436.8 472.15 431.35C478.48 425.9 481.64 418.17 481.64 408.15C481.64 398.13 478.87 390.84 473.33 385.74C467.79 380.64 459.75 378.09 449.2 378.09H431.53C431.35 378.44 431.22 378.79 431.13 379.14C431.04 379.49 431 380.55 431 382.3V473C431 482.14 431.04 489.13 431.13 493.96C431.22 498.8 431.35 502.36 431.53 504.64C431.6 505.51 431.66 506.33 431.73 507.1C431.9 509.1 433.33 510.75 435.27 511.24L444.08 513.44C446.28 513.99 447.77 516.03 447.63 518.29V518.42C447.47 520.9 445.41 522.83 442.93 522.83H403.77C401.29 522.83 399.23 520.9 399.08 518.42L399.11 518.43ZM518.3 525.21C511.62 525.21 505.68 523.8 500.5 520.99C495.31 518.18 490.04 513.34 484.68 506.49C479.32 499.63 472.95 490.14 465.56 478.01L449.37 450.89C447.73 448.14 449.26 444.6 452.38 443.9L458.18 442.6C460.08 442.17 462.05 442.97 463.13 444.6L488.5 483.03C493.95 491.29 498.74 497.71 502.87 502.28C507 506.85 511 510.19 514.87 512.3C517.69 513.84 520.69 515 523.89 515.79C526.02 516.32 527.47 518.29 527.4 520.49V520.55C527.32 522.95 525.44 524.94 523.04 525.08C523 525.08 522.96 525.08 522.92 525.08C521.25 525.17 519.71 525.21 518.31 525.21H518.3Z" fill="white"/>
<path d="M679 520.23C678.39 522.47 676.23 523.93 673.92 523.66C670.51 523.26 667.93 523.03 666.19 522.97C663.82 522.88 661.4 522.84 658.94 522.84H572.92C570.44 522.84 568.38 520.91 568.23 518.43C568.09 516.11 569.66 514.04 571.93 513.54L580.42 511.7C582.5 511.25 584.02 509.47 584.12 507.34C584.15 506.73 584.18 506.04 584.2 505.3C584.29 502.4 584.37 498.27 584.46 492.91C584.55 487.55 584.59 480.91 584.59 473V418.16C584.59 410.08 584.55 403.31 584.46 397.86C584.37 392.41 584.28 388.24 584.2 385.34C584.18 384.7 584.16 384.11 584.13 383.57C584.03 381.44 582.51 379.66 580.43 379.2L571.93 377.36C569.66 376.87 568.09 374.79 568.23 372.47C568.38 369.99 570.44 368.06 572.92 368.06H660.26C661.84 368.06 663.73 367.97 665.93 367.8C667.15 367.7 668.6 367.58 670.28 367.43C672.78 367.2 675.03 368.99 675.37 371.48L678.62 395.4C678.97 397.94 677.21 400.29 674.68 400.68L672.68 400.99C670.5 401.32 668.39 400.1 667.59 398.05L661.55 382.57C660.89 380.89 659.33 379.72 657.53 379.59C657.27 379.57 656.99 379.56 656.7 379.54C655.03 379.45 653.23 379.41 651.29 379.41H616.49C613.15 379.41 610.33 379.45 608.05 379.54C607.11 379.58 606.15 379.64 605.17 379.72C602.77 379.92 600.9 381.88 600.84 384.29C600.83 384.81 600.81 385.38 600.8 386.01C600.71 389.35 600.62 393.13 600.54 397.35C600.45 401.57 600.41 405.35 600.41 408.69V487.53C600.41 489.99 600.45 492.85 600.54 496.1C600.63 499.35 600.71 502.3 600.8 504.93C600.81 505.31 600.82 505.67 600.83 506.02C600.91 508.41 602.76 510.36 605.15 510.55C605.93 510.61 606.72 510.67 607.52 510.73C609.8 510.91 612.18 510.99 614.64 510.99H645.75C649.26 510.99 652.3 510.95 654.85 510.86C657.4 510.77 659.46 510.64 661.05 510.46C661.41 510.42 661.74 510.38 662.06 510.34C663.55 510.15 664.85 509.26 665.57 507.94L676.25 488.47C677.25 486.65 679.31 485.7 681.34 486.13L683.07 486.49C685.72 487.05 687.35 489.72 686.64 492.33L679.01 520.25L679 520.23ZM650.04 464.42L647.91 453.13C647.53 451.09 645.86 449.56 643.8 449.33C643.62 449.31 643.44 449.29 643.25 449.27C641.4 449.1 639.16 449.01 636.53 449.01H613.59C611.65 449.01 609.33 449.05 606.6 449.14C605.22 449.19 603.73 449.24 602.15 449.31C599.48 449.42 597.24 447.29 597.24 444.61V442.03C597.24 439.38 599.44 437.26 602.09 437.33C603.7 437.38 605.2 437.4 606.6 437.4H636.53C639.17 437.4 641.41 437.36 643.25 437.27C643.36 437.27 643.48 437.26 643.59 437.25C645.75 437.13 647.54 435.53 647.93 433.4L650.07 421.74C650.48 419.51 652.42 417.89 654.69 417.89H655.57C658.17 417.89 660.27 419.99 660.27 422.59V463.55C660.27 466.15 658.17 468.25 655.57 468.25H654.67C652.41 468.25 650.47 466.64 650.05 464.42H650.04Z" fill="white"/>
<path d="M851.48 402.48L804.96 520.7C804.26 522.47 802.56 523.63 800.65 523.63H797.01C795.07 523.63 793.34 522.42 792.67 520.6L741.62 382.19C741.1 380.77 739.91 379.69 738.44 379.31L731.29 377.45C729.15 376.89 727.7 374.89 727.84 372.68L727.86 372.39C728.01 369.95 730.03 368.05 732.48 368.05H767.82C770.26 368.05 772.29 369.95 772.44 372.39V372.61C772.59 374.85 771.1 376.87 768.92 377.4L764.54 378.45C761.86 379.09 760.33 381.93 761.27 384.52L803.28 500.95H801.7L841.35 393.96C842.9 389.77 848.91 390 850.14 394.3L851.63 399.52C851.91 400.5 851.86 401.54 851.49 402.49L851.48 402.48ZM886.55 520.56L836.8 382.22C836.28 380.78 835.09 379.69 833.61 379.31L826.48 377.46C824.34 376.9 822.89 374.9 823.03 372.69L823.05 372.4C823.2 369.96 825.22 368.06 827.67 368.06H865.12C867.56 368.06 869.59 369.96 869.74 372.4V372.48C869.89 374.78 868.31 376.84 866.05 377.3L859.65 378.6C856.9 379.16 855.28 382.02 856.21 384.67L896.77 499.83C896.96 500.38 896.56 500.95 895.98 500.95C895.4 500.95 895 500.38 895.19 499.83L935.95 385.04C936.9 382.35 935.23 379.45 932.42 378.94L923.08 377.23C920.78 376.81 919.15 374.73 919.3 372.39C919.45 369.95 921.47 368.05 923.92 368.05H961.37C963.81 368.05 965.84 369.95 965.99 372.39L966.01 372.68C966.15 374.89 964.7 376.89 962.56 377.45L955.37 379.32C953.93 379.7 952.75 380.74 952.22 382.13L898.84 520.65C898.15 522.44 896.44 523.61 894.52 523.61H890.93C888.98 523.61 887.24 522.39 886.58 520.55L886.55 520.56Z" fill="white"/>
<path d="M996.83 521.49L996.46 515.58C996.42 514.9 996.86 514.28 997.53 514.1L1008.6 511.16C1009.04 511.04 1009.4 510.72 1009.57 510.29L1063.45 371.4C1063.56 371.11 1063.76 370.87 1064.02 370.7L1074.26 364.24C1075.03 363.76 1076.05 364.1 1076.37 364.95L1131.38 510.27C1131.54 510.7 1131.91 511.03 1132.36 511.15L1143.43 514.09C1144.09 514.27 1144.54 514.88 1144.5 515.57L1144.13 521.48C1144.08 522.24 1143.45 522.83 1142.7 522.83H1100.31C1099.55 522.83 1098.92 522.24 1098.88 521.48L1098.51 515.62C1098.47 514.91 1098.95 514.28 1099.64 514.13L1112.61 511.32C1113.47 511.13 1113.96 510.22 1113.65 509.4L1098.17 469.31L1095.27 461.66L1065.54 386.29C1065.34 385.78 1065.45 385.2 1065.82 384.79C1066.88 383.63 1068.77 384.77 1068.23 386.25L1040.43 461.91L1037.53 469.82L1023.32 509.41C1023.03 510.23 1023.52 511.12 1024.37 511.3L1037.38 514.12C1038.07 514.27 1038.55 514.91 1038.51 515.61L1038.14 521.47C1038.09 522.23 1037.46 522.82 1036.71 522.82H998.28C997.52 522.82 996.89 522.23 996.85 521.47L996.83 521.49ZM1031.46 470.74V461.59C1031.46 460.77 1032.14 460.12 1032.96 460.15C1036.21 460.3 1040.64 460.45 1046.23 460.6C1052.73 460.78 1060.56 460.86 1069.7 460.86C1078.84 460.86 1086.4 460.77 1092.9 460.6C1098.45 460.45 1102.78 460.3 1105.9 460.15C1106.72 460.11 1107.4 460.76 1107.4 461.59V470.74C1107.4 471.55 1106.73 472.19 1105.92 472.18C1099.09 472.02 1092.63 471.9 1086.57 471.82C1080.07 471.73 1074.44 471.69 1069.69 471.69C1064.94 471.69 1059.67 471.73 1053.34 471.82C1047.39 471.91 1040.59 472.03 1032.93 472.18C1032.13 472.2 1031.45 471.55 1031.45 470.74H1031.46Z" fill="white"/>
<path d="M1187.91 518.43V518.3C1187.76 516.04 1189.25 514 1191.45 513.45L1199.99 511.32C1202.03 510.81 1203.48 509.01 1203.55 506.92C1203.57 506.34 1203.59 505.72 1203.62 505.05C1203.71 502.68 1203.75 499.87 1203.75 496.61C1203.75 493.35 1203.79 489.71 1203.88 485.67C1203.97 481.63 1204.01 477.41 1204.01 473.01V418.17C1204.01 409.73 1203.97 402.84 1203.88 397.47C1203.79 392.11 1203.7 388.02 1203.62 385.21C1203.6 384.63 1203.58 384.09 1203.56 383.6C1203.46 381.46 1201.95 379.66 1199.86 379.21L1191.35 377.37C1189.08 376.88 1187.51 374.8 1187.65 372.48C1187.8 370 1189.86 368.07 1192.34 368.07H1240.4C1255.17 368.07 1266.72 371.28 1275.07 377.69C1283.42 384.11 1287.59 393.29 1287.59 405.24C1287.59 413.85 1285.3 421.55 1280.73 428.31C1276.16 435.08 1269.79 440.35 1261.61 444.13C1253.44 447.91 1244.08 449.8 1233.53 449.8H1220.83C1218.23 449.8 1216.13 447.7 1216.13 445.1V444.22C1216.13 441.62 1218.23 439.52 1220.83 439.52H1233.53C1245.48 439.52 1254.62 436.8 1260.95 431.35C1267.28 425.9 1270.44 418.17 1270.44 408.15C1270.44 398.13 1267.67 390.84 1262.13 385.74C1256.59 380.64 1248.55 378.09 1238 378.09H1220.33C1220.15 378.44 1220.02 378.79 1219.93 379.14C1219.84 379.49 1219.8 380.55 1219.8 382.3V473C1219.8 482.14 1219.84 489.13 1219.93 493.96C1220.02 498.8 1220.15 502.36 1220.33 504.64C1220.4 505.51 1220.46 506.33 1220.53 507.1C1220.7 509.1 1222.13 510.75 1224.07 511.24L1232.88 513.44C1235.08 513.99 1236.57 516.03 1236.43 518.29V518.42C1236.27 520.9 1234.21 522.83 1231.73 522.83H1192.57C1190.09 522.83 1188.03 520.9 1187.88 518.42L1187.91 518.43ZM1307.1 525.21C1300.42 525.21 1294.48 523.8 1289.3 520.99C1284.11 518.18 1278.84 513.34 1273.48 506.49C1268.12 499.63 1261.75 490.14 1254.36 478.01L1238.17 450.89C1236.53 448.14 1238.06 444.6 1241.18 443.9L1246.98 442.6C1248.88 442.17 1250.85 442.97 1251.93 444.6L1277.3 483.03C1282.75 491.29 1287.54 497.71 1291.67 502.28C1295.8 506.85 1299.8 510.19 1303.67 512.3C1306.49 513.84 1309.49 515 1312.69 515.79C1314.82 516.32 1316.27 518.29 1316.2 520.49V520.55C1316.12 522.95 1314.24 524.94 1311.84 525.08C1311.8 525.08 1311.76 525.08 1311.72 525.08C1310.05 525.17 1308.51 525.21 1307.11 525.21H1307.1Z" fill="white"/>
<path d="M1357.03 372.47C1357.19 369.99 1359.24 368.06 1361.73 368.06H1416.63C1444.05 368.06 1465.45 374.7 1480.83 387.97C1496.21 401.24 1503.9 419.83 1503.9 443.74C1503.9 459.21 1500.34 472.92 1493.22 484.87C1486.1 496.83 1476.25 506.14 1463.69 512.82C1451.12 519.5 1436.57 522.84 1420.05 522.84H1361.72C1359.23 522.84 1357.18 520.91 1357.02 518.43C1356.88 516.11 1358.44 514.04 1360.71 513.54L1369.04 511.7C1371.07 511.25 1372.56 509.54 1372.72 507.47C1372.91 505.04 1373.09 501.64 1373.25 497.26C1373.51 490.05 1373.65 481.97 1373.65 473V418.16C1373.65 407.97 1373.52 399.35 1373.25 392.32C1373.11 388.51 1372.95 385.55 1372.78 383.44C1372.61 381.33 1371.12 379.66 1369.1 379.22L1360.71 377.37C1358.44 376.87 1356.88 374.79 1357.02 372.48L1357.03 372.47ZM1394.11 379.99C1391.9 380.36 1390.27 382.27 1390.22 384.5C1390.2 385.39 1390.17 386.33 1390.14 387.3C1390.05 389.76 1389.96 393.32 1389.88 397.98C1389.79 402.64 1389.75 409.36 1389.75 418.15V472.99C1389.75 478.62 1389.79 483.67 1389.88 488.15C1389.97 492.63 1390.1 496.59 1390.28 500.02C1390.37 501.77 1390.46 503.39 1390.55 504.88C1390.69 507.18 1392.47 509.03 1394.75 509.27C1399.59 509.78 1403.86 510.22 1407.55 510.56C1412.21 511 1416.91 511.22 1421.66 511.22C1442.05 511.22 1457.56 505.95 1468.2 495.4C1478.83 484.85 1484.15 470.18 1484.15 451.37C1484.15 440.3 1482.74 430.28 1479.93 421.31C1477.12 412.35 1472.81 404.7 1467.01 398.37C1461.21 392.04 1453.87 387.16 1444.99 383.74C1436.11 380.31 1425.61 378.6 1413.48 378.6C1409.96 378.6 1406.27 378.73 1402.41 379C1399.73 379.18 1396.97 379.51 1394.13 379.99H1394.11Z" fill="white"/>
<path d="M1604.99 525.21C1597.25 525.21 1589.47 524.29 1581.66 522.44C1575.28 520.93 1569.98 519.16 1565.76 517.13C1564.11 516.34 1563.02 514.72 1562.93 512.9L1561.72 488.68C1561.59 486.08 1563.49 483.83 1566.07 483.52C1568.45 483.23 1570.7 484.69 1571.4 486.99L1576.22 502.81C1576.58 503.99 1577.36 505.01 1578.43 505.62C1582.53 507.98 1586.9 509.89 1591.55 511.36C1596.82 513.03 1602.71 513.86 1609.22 513.86C1618.18 513.86 1625.57 511.58 1631.37 507C1637.17 502.43 1640.07 496.1 1640.07 488.02C1640.07 481.69 1638.18 476.42 1634.4 472.2C1630.62 467.98 1625.79 464.25 1619.9 460.99C1614.01 457.74 1607.77 454.57 1601.18 451.5C1594.59 448.43 1588.35 444.95 1582.46 441.08C1576.57 437.22 1571.74 432.56 1567.96 427.11C1564.18 421.66 1562.29 414.89 1562.29 406.81C1562.29 398.73 1564.53 391.56 1569.01 385.32C1573.49 379.08 1579.64 374.2 1587.47 370.69C1595.29 367.18 1604.21 365.42 1614.23 365.42C1619.15 365.42 1623.63 365.64 1627.68 366.08C1631.72 366.52 1635.46 367.18 1638.89 368.06C1641.1 368.63 1643.17 369.27 1645.12 369.98C1647.07 370.69 1648.31 372.39 1648.41 374.39L1649.58 396.67C1649.72 399.27 1647.82 401.53 1645.23 401.85H1645.12C1642.79 402.15 1640.58 400.75 1639.83 398.53L1634.82 383.68C1634.44 382.56 1633.69 381.61 1632.67 381.01C1627.36 377.84 1620.24 376.25 1611.32 376.25C1601.65 376.25 1593.92 378.62 1588.12 383.37C1582.32 388.12 1579.42 394.18 1579.42 401.56C1579.42 408.06 1581.31 413.6 1585.09 418.17C1588.87 422.74 1593.7 426.7 1599.59 430.04C1605.48 433.38 1611.76 436.59 1618.44 439.66C1625.12 442.74 1631.4 446.16 1637.29 449.94C1643.18 453.72 1648.01 458.25 1651.79 463.52C1655.57 468.79 1657.46 475.3 1657.46 483.03C1657.46 490.76 1655.17 498.32 1650.6 504.65C1646.03 510.98 1639.79 515.99 1631.88 519.68C1623.97 523.37 1615 525.22 1604.99 525.22V525.21Z" fill="white"/>
</g>
<defs>
<clipPath id="clip0_8214_319">
<rect width="2056.3" height="525.21" fill="white"/>
</clipPath>
</defs>
</svg>
